<svg id="logosandtypes_com" xmlns="http://www.w3.org/2000/svg" viewBox="0 0 150 150"><path d="M0 0h150v150H0V0z" fill="none"/><path d="M134.8 15.6H37.3C26 15.6 17 25.3 17 37.3v95.6h97.5c11.2 0 20.3-9.7 20.3-21.8V15.6z" fill="#ffcb05"/><path d="M87.5 66.1c1.4 2.2 2.6 5 2.4 7.9-.4 7.7-6.7 13.8-14.5 13.9H57.1c-9.2.1-16.7 7.3-17.2 16.5l-.3 6.5 40.8-.1c16.3 0 27.7-10.1 28.2-22.4.6-11.9-8.4-21.6-21.1-22.3" fill="#ed1b23"/><path d="M71.7 37.1c-16.3 0-27.7 10.1-28.2 22.4v.1c-.5 12 8.3 21.7 21.1 22.4-1.6-2.4-2.4-5.1-2.3-7.9.4-7.7 6.9-13.9 14.5-13.9h18.5c9-.1 16.6-7.5 17.1-16.5l.3-6.5h-41"/></svg>